<svg width="100" height="98" viewBox="0 0 100 98" fill="none" xmlns="http://www.w3.org/2000/svg">
<path d="M91.7969 25.6484L92.0312 25.4953C91.5625 24.6531 90.8594 23.8875 90.1562 23.5046L52.4219 2.22026C51.7969 1.83745 50.9375 1.68433 50 1.68433C49.0625 1.68433 48.2031 1.91401 47.5781 2.22026L10.0781 23.5812C8.75 24.3468 7.8125 26.2609 7.8125 27.7156V70.3609C7.8125 71.2031 7.96875 72.1218 8.51562 72.964L8.35937 73.0406C8.75 73.6531 9.29688 74.189 9.84375 74.4953L47.5 95.8562C48.125 96.239 48.9844 96.3921 49.9219 96.3921C50.8594 96.3921 51.7188 96.1625 52.3438 95.8562L89.8438 74.4953C91.1719 73.7296 92.1094 71.8156 92.1094 70.3609V27.639C92.1875 27.0265 92.1094 26.3375 91.7969 25.6484ZM50 79.2421C32.9688 79.2421 19.1406 65.6906 19.1406 49C19.1406 32.3093 32.9688 18.7578 50 18.7578C61.4844 18.7578 71.4844 24.9593 76.7969 34.0703L66.6406 39.8125C63.3594 34.0703 57.1094 30.2421 50 30.2421C39.4531 30.2421 30.8594 38.664 30.8594 49C30.8594 59.3359 39.4531 67.7578 50 67.7578C57.1094 67.7578 63.3594 63.9296 66.6406 58.264L76.7188 64.0828C71.4062 73.1171 61.4062 79.2421 50 79.2421ZM89.8438 47.4687H87.3438L86.6406 50.5312H89.8438V54.3593H85.9375L85 58.9531H81.1719L82.1094 54.3593H79.1406L78.2031 58.9531H74.4531L75.3906 54.3593H73.4375V50.5312H76.1719L76.875 47.4687H73.4375V43.6406H77.5781L78.5156 39.0468H82.3438L81.4062 43.6406H84.375L85.3125 39.0468H89.0625L88.125 43.6406H89.8438V47.4687ZM79.9219 50.5312H82.8906L83.5938 47.4687H80.625L79.9219 50.5312Z" fill="#68217A"/>
</svg>
