<svg width="110" height="100" viewBox="0 0 110 100" fill="none" xmlns="http://www.w3.org/2000/svg">
<g clip-path="url(#clip0_10_164)">
<path d="M0 15C0 6.71573 6.71573 0 15 0H95C103.284 0 110 6.71573 110 15V85C110 93.2843 103.284 100 95 100H15C6.71573 100 0 93.2843 0 85V15Z" fill="#F7DF1E"/>
<path d="M28.9232 83.5672L37.3407 78.936C38.965 81.5536 40.4422 83.7684 43.9859 83.7684C47.3825 83.7684 49.5245 82.5606 49.5245 77.8622V45.9098H59.8615V77.995C59.8615 87.7282 53.5855 92.1586 44.4289 92.1586C36.1595 92.1586 31.3595 88.2653 28.9227 83.5664M65.4762 82.5602L73.893 78.1301C76.1089 81.4196 78.9886 83.836 84.083 83.836C88.3666 83.836 91.0976 81.8891 91.0976 79.2039C91.0976 75.9821 88.2918 74.8407 83.5661 72.9618L80.9824 71.954C73.5243 69.0684 68.5773 65.4434 68.5773 57.7911C68.5773 50.7426 74.4842 45.3723 83.7143 45.3723C90.286 45.3723 95.0117 47.4536 98.4079 52.8907L90.359 57.5899C88.5866 54.7036 86.6676 53.5625 83.7139 53.5625C80.6863 53.5625 78.7665 55.3079 78.7665 57.5899C78.7665 60.409 80.6863 61.5508 85.1164 63.2961L87.7005 64.3028C96.4876 67.7266 101.435 71.2168 101.435 79.07C101.435 87.5286 94.1248 92.1598 84.3043 92.1598C74.7055 92.1598 68.503 87.9981 65.4758 82.5606" fill="black"/>
</g>
<defs>
<clipPath id="clip0_10_164">
<rect width="110" height="100" rx="10" fill="white"/>
</clipPath>
</defs>
</svg>
