<svg width="26" height="26" viewBox="0 0 26 26" fill="none" xmlns="http://www.w3.org/2000/svg">
<rect opacity="0.2" width="26" height="26" fill="white"/>
<g clip-path="url(#clip0_1_271)">
<path d="M8.85367 15.3063C10.2345 16.9569 11.8968 18.2565 13.794 19.1761C14.5163 19.5184 15.4823 19.9246 16.5586 19.9942C16.6253 19.9971 16.6891 20 16.7559 20C17.4782 20 18.0584 19.7505 18.5312 19.237C18.5341 19.2341 18.5399 19.2283 18.5428 19.2225C18.7111 19.0195 18.9026 18.8367 19.1027 18.6424C19.2391 18.5118 19.3783 18.3755 19.5118 18.2362C20.1297 17.5922 20.1297 16.7741 19.506 16.1504L17.7625 14.407C17.4666 14.0995 17.1127 13.937 16.7414 13.937C16.37 13.937 16.0132 14.0995 15.7086 14.4041L14.6701 15.4426C14.5743 15.3875 14.4757 15.3382 14.3829 15.2918C14.2668 15.2337 14.1595 15.1786 14.0638 15.1177C13.1181 14.5172 12.2594 13.7339 11.4384 12.7273C11.0236 12.2022 10.7451 11.7613 10.5507 11.3116C10.8234 11.0651 11.0787 10.8069 11.3253 10.5545C11.4123 10.4646 11.5022 10.3746 11.5922 10.2847C11.9055 9.9714 12.0737 9.60879 12.0737 9.24036C12.0737 8.87194 11.9084 8.50932 11.5922 8.19602L10.7277 7.33154C10.6261 7.23 10.5304 7.13137 10.4318 7.02984C10.2403 6.83257 10.0402 6.62951 9.84289 6.44675C9.54409 6.15375 9.19308 6 8.82176 6C8.45334 6 8.09942 6.15375 7.78902 6.44965L6.70406 7.5346C6.30953 7.92913 6.08616 8.40779 6.03974 8.96187C5.98462 9.6552 6.11227 10.392 6.44297 11.2826C6.95064 12.6606 7.71649 13.9399 8.85367 15.3063ZM6.74757 9.02279C6.78239 8.63697 6.93033 8.31496 7.20883 8.03647L8.28798 6.95731C8.45624 6.79486 8.6419 6.71073 8.82176 6.71073C8.99871 6.71073 9.17857 6.79486 9.34393 6.96312C9.53829 7.14298 9.72105 7.33154 9.91832 7.5317C10.0169 7.63324 10.1185 7.73477 10.22 7.8392L11.0845 8.70369C11.2644 8.88355 11.3572 9.06631 11.3572 9.24617C11.3572 9.42603 11.2644 9.60879 11.0845 9.78865C10.9946 9.87857 10.9046 9.97141 10.8147 10.0613C10.5449 10.334 10.2925 10.5922 10.014 10.8388L9.99954 10.8533C9.75876 11.0941 9.79648 11.3232 9.8545 11.4973C9.8574 11.506 9.8603 11.5118 9.8632 11.5205C10.0866 12.0572 10.397 12.5678 10.8814 13.177C11.7517 14.2503 12.6684 15.0829 13.678 15.724C13.8027 15.8052 13.9361 15.869 14.0609 15.9329C14.1769 15.9909 14.2843 16.046 14.38 16.1069C14.3916 16.1127 14.4003 16.1185 14.4119 16.1243C14.5076 16.1736 14.6005 16.1969 14.6933 16.1969C14.9254 16.1969 15.0762 16.0489 15.1255 15.9996L16.2105 14.9146C16.3787 14.7464 16.5615 14.6564 16.7414 14.6564C16.9618 14.6564 17.1417 14.7928 17.2548 14.9146L19.0041 16.661C19.3522 17.0091 19.3493 17.3862 18.9954 17.7547C18.8736 17.8852 18.7459 18.0099 18.6096 18.1405C18.4065 18.3378 18.1947 18.5408 18.0033 18.77C17.6697 19.1297 17.2722 19.298 16.7588 19.298C16.7094 19.298 16.6572 19.2951 16.6079 19.2922C15.6564 19.2312 14.7716 18.8599 14.1073 18.5437C12.3029 17.6705 10.719 16.4318 9.40485 14.8595C8.32279 13.557 7.59465 12.3444 7.11309 11.0448C6.8143 10.247 6.70116 9.60588 6.74757 9.02279Z" fill="#A6A001"/>
</g>
<defs>
<clipPath id="clip0_1_271">
<rect width="14" height="14" fill="white" transform="translate(6 6)"/>
</clipPath>
</defs>
</svg>
