<svg width="48" height="48" viewBox="0 0 48 48" fill="none" xmlns="http://www.w3.org/2000/svg">
<path d="M23.997 0C10.746 0 1.38494e-05 11.0173 1.38494e-05 24.6083C-0.00540001 29.7663 1.57656 34.7956 4.52231 38.9855C7.46806 43.1753 11.6286 46.3138 16.416 47.9573C17.616 48.184 18.054 47.4242 18.054 46.7716C18.054 46.1865 18.033 44.6392 18.021 42.5865C11.346 44.0724 9.93601 39.2868 9.93601 39.2868C8.84701 36.4436 7.27201 35.6869 7.27201 35.6869C5.09101 34.1611 7.43401 34.1918 7.43401 34.1918C9.84301 34.3664 11.109 36.7286 11.109 36.7286C13.251 40.4878 16.728 39.4032 18.096 38.7721C18.312 37.182 18.933 36.0974 19.62 35.4816C14.292 34.8597 8.68801 32.7487 8.68801 23.3215C8.68801 20.6345 9.62401 18.4378 11.16 16.716C10.911 16.094 10.089 13.5909 11.394 10.2054C11.394 10.2054 13.41 9.54367 17.994 12.7269C19.9522 12.1804 21.973 11.9022 24.003 11.8997C26.0331 11.9038 28.0538 12.183 30.012 12.73C34.593 9.54673 36.606 10.2085 36.606 10.2085C37.914 13.597 37.092 16.0971 36.846 16.719C38.385 18.4409 39.312 20.6376 39.312 23.3245C39.312 32.7763 33.702 34.8566 28.356 35.4663C29.217 36.2261 29.985 37.7274 29.985 40.0221C29.985 43.3126 29.955 45.9659 29.955 46.7716C29.955 47.4303 30.387 48.1963 31.605 47.9543C36.3877 46.3068 40.5431 43.1671 43.4848 38.9783C46.4264 34.7895 48.0058 29.763 48 24.6083C48 11.0173 37.254 0 23.997 0Z" fill="#38849C"/>
</svg>
