<svg width="128" height="128" viewBox="0 0 128 128" fill="none" xmlns="http://www.w3.org/2000/svg">
<path d="M124.742 58.378L69.6249 3.26405C66.4529 0.090045 61.3049 0.090045 58.1279 3.26405L46.6849 14.71L61.2029 29.228C64.5779 28.089 68.4459 28.853 71.1349 31.542C73.8379 34.248 74.5969 38.149 73.4279 41.535L87.4199 55.529C90.8049 54.362 94.7119 55.116 97.4139 57.824C101.194 61.601 101.194 67.724 97.4139 71.503C93.6339 75.283 87.5129 75.283 83.7309 71.503C80.8889 68.659 80.1859 64.484 81.6259 60.982L68.5779 47.933L68.5759 82.274C69.4979 82.729 70.3669 83.337 71.1349 84.102C74.9139 87.879 74.9139 94 71.1349 97.785C67.3559 101.562 61.2309 101.562 57.4559 97.785C53.6779 94.001 53.3679 87.88 57.1449 84.102C58.0789 83.169 58.9999 82.464 59.9999 81.992V47.333C58.9999 46.861 58.0799 46.161 57.1439 45.222C54.2829 42.362 53.7479 38.162 55.2159 34.646L40.9829 20.333L3.22894 58.123C0.0539396 61.3 0.0739396 66.448 3.24894 69.623L58.3749 124.737C61.5479 127.911 66.6999 127.911 69.8779 124.737L124.738 69.879C127.913 66.703 127.916 61.552 124.742 58.378Z" fill="#F34F29"/>
</svg>
