<svg width="115" height="112" viewBox="0 0 115 112" fill="none" xmlns="http://www.w3.org/2000/svg">
<rect width="115" height="112" rx="16" fill="#1E2235"/>
<path d="M85.7966 43.1907C85.7962 42.1473 85.5671 41.2253 85.1037 40.434C84.6485 39.6558 83.9669 39.0036 83.0526 38.488C75.5053 34.2497 67.9508 30.0245 60.406 25.7819C58.372 24.6382 56.3998 24.6799 54.3809 25.84C51.3768 27.5654 36.3367 35.9574 31.855 38.4856C30.0092 39.5262 29.1111 41.1188 29.1107 43.1888C29.1078 51.7121 29.1107 60.2353 29.1078 68.7589C29.1082 69.7794 29.3276 70.6834 29.7706 71.4629C30.226 72.2645 30.9171 72.9347 31.8525 73.462C36.3345 75.9902 51.3766 84.3815 54.38 86.1074C56.3998 87.2681 58.372 87.3096 60.4067 86.1655C67.9517 81.9227 75.5067 77.6976 83.055 73.4594C83.9904 72.9323 84.6816 72.2617 85.137 71.4607C85.5793 70.6813 85.7991 69.7772 85.7995 68.7565C85.7995 68.7565 85.7995 51.7143 85.7966 43.1907" fill="#5C8DBC"/>
<path d="M57.5404 55.8907L29.7706 71.4629C30.226 72.2646 30.9171 72.9347 31.8525 73.462C36.3345 75.9902 51.3766 84.3816 54.38 86.1074C56.3998 87.2681 58.372 87.3096 60.4067 86.1655C67.9517 81.9227 75.5067 77.6977 83.0551 73.4594C83.9904 72.9323 84.6816 72.2618 85.137 71.4607L57.5404 55.8907" fill="#1A4674"/>
<path d="M49.3153 60.5033C50.9312 63.2508 53.969 65.1038 57.4537 65.1038C60.9599 65.1038 64.0149 63.2272 65.6227 60.4504L57.5404 55.8907L49.3153 60.5033" fill="#1A4674"/>
<path d="M85.7967 43.1907C85.7962 42.1473 85.5671 41.2253 85.1037 40.434L57.5404 55.8908L85.137 71.4608C85.5793 70.6813 85.7991 69.7773 85.7995 68.7565C85.7995 68.7565 85.7995 51.7143 85.7967 43.1907" fill="#1B598E"/>
<path d="M84.2792 57.0037H82.1227V59.1043H79.9658V57.0037H77.8096V54.9037H79.9658V52.8035H82.1227V54.9037H84.2792V57.0037ZM76.4104 57.0037H74.2541V59.1043H72.0976V57.0037H69.9412V54.9037H72.0976V52.8035H74.2541V54.9037H76.4104V57.0037Z" fill="#1E2235"/>
<path d="M65.6227 60.4504C64.015 63.2273 60.9599 65.1039 57.4537 65.1039C53.969 65.1039 50.9312 63.2508 49.3153 60.5034C48.5036 59.1247 48.0772 57.5629 48.0789 55.9737C48.0789 50.9314 52.2763 46.8437 57.4537 46.8437C60.916 46.8437 63.9378 48.6737 65.5617 51.393L73.7557 46.7977C70.4988 41.3223 64.4182 37.6385 57.4537 37.6385C47.0559 37.6385 38.6272 45.8476 38.6272 55.9737C38.6272 59.2958 39.5346 62.4111 41.1206 65.0983C44.3693 70.6027 50.4672 74.309 57.4537 74.309C64.453 74.309 70.5605 70.5877 73.8045 65.0672L65.6227 60.4504Z" fill="#1E2235"/>
</svg>
