<svg width="26" height="26" viewBox="0 0 26 26" fill="none" xmlns="http://www.w3.org/2000/svg">
<rect opacity="0.2" width="26" height="26" fill="white"/>
<path d="M18.7695 8.07812H7.23047C6.55062 8.07812 6 8.63216 6 9.30859V16.6914C6 17.3719 6.55467 17.9219 7.23047 17.9219H18.7695C19.4437 17.9219 20 17.3742 20 16.6914V9.30859C20 8.63337 19.4516 8.07812 18.7695 8.07812ZM18.5972 8.89844L13.8701 13.6007C13.6377 13.8331 13.3287 13.9611 13 13.9611C12.6713 13.9611 12.3623 13.8331 12.1292 13.5999L7.40279 8.89844H18.5972ZM6.82031 16.5244V9.47607L10.3651 13.0022L6.82031 16.5244ZM7.40331 17.1016L10.9467 13.5807L11.5499 14.1807C11.9372 14.5681 12.4522 14.7814 13 14.7814C13.5478 14.7814 14.0628 14.5681 14.4494 14.1815L15.0533 13.5807L18.5967 17.1016H7.40331ZM19.1797 16.5244L15.6349 13.0022L19.1797 9.47607V16.5244Z" fill="#A6A001"/>
</svg>
