<svg width="103" height="102" viewBox="0 0 103 102" fill="none" xmlns="http://www.w3.org/2000/svg">
<g clip-path="url(#clip0_1_322)">
<path d="M6.48542 3.37661L13.1703 88.0676C13.2707 89.3394 14.14 90.4239 15.3679 90.8094L50.5441 101.854C51.1661 102.049 51.834 102.049 52.456 101.854L87.6321 90.8094C88.8601 90.4239 89.7294 89.3394 89.8298 88.0676L96.5147 3.37661C96.6584 1.5558 95.2053 0 93.3612 0H9.63914C7.79502 0 6.34189 1.5558 6.48542 3.37661ZM79.3717 29.6534H35.8049L37.1197 41.6602H78.4241L75.7221 75.8898L51.5002 83.4947L27.2782 75.8898L25.8666 58.0068H38.5802V66.7787L51.8399 70.3028L65.0204 66.7787L66.0429 52.7988H25.4554L22.7608 18.659H80.2393L79.3717 29.6534Z" fill="#FC490B"/>
</g>
<defs>
<clipPath id="clip0_1_322">
<rect width="103" height="102" fill="white"/>
</clipPath>
</defs>
</svg>
