<svg width="128" height="128" viewBox="0 0 128 128" fill="none" xmlns="http://www.w3.org/2000/svg">
<path d="M47.617 98.1201C47.617 98.1201 42.85 100.894 51.014 101.83C60.906 102.96 65.961 102.798 76.859 100.738C76.859 100.738 79.73 102.533 83.732 104.089C59.293 114.559 28.424 103.482 47.617 98.1201ZM44.629 84.4551C44.629 84.4551 39.281 88.4141 47.452 89.2601C58.019 90.3511 66.362 90.4401 80.806 87.6601C80.806 87.6601 82.799 89.6851 85.938 90.7911C56.396 99.4311 23.492 91.4711 44.629 84.4551Z" fill="#0074BD"/>
<path d="M69.802 61.271C75.827 68.206 68.222 74.441 68.222 74.441C68.222 74.441 83.511 66.55 76.491 56.664C69.932 47.449 64.904 42.872 92.126 27.084C92.126 27.085 49.395 37.754 69.802 61.271Z" fill="#EA2D2E"/>
<path d="M102.123 108.229C102.123 108.229 105.652 111.139 98.235 113.388C84.133 117.66 39.529 118.948 27.141 113.559C22.69 111.621 31.04 108.934 33.667 108.367C36.406 107.774 37.97 107.882 37.97 107.882C33.017 104.395 5.95698 114.732 24.227 117.697C74.048 125.773 115.044 114.06 102.123 108.229ZM49.912 70.294C49.912 70.294 27.226 75.683 41.879 77.642C48.067 78.47 60.397 78.28 71.89 77.316C81.28 76.527 90.703 74.842 90.703 74.842C90.703 74.842 87.395 76.261 84.999 77.895C61.957 83.956 17.455 81.133 30.268 74.937C41.1 69.698 49.912 70.294 49.912 70.294ZM90.609 93.041C114.03 80.874 103.2 69.181 95.641 70.756C93.793 71.141 92.964 71.476 92.964 71.476C92.964 71.476 93.652 70.397 94.964 69.933C109.917 64.678 121.415 85.436 90.141 93.658C90.141 93.656 90.5 93.331 90.609 93.041Z" fill="#0074BD"/>
<path d="M76.491 1.58691C76.491 1.58691 89.459 14.5629 64.188 34.5099C43.922 50.5159 59.567 59.6399 64.181 70.0689C52.35 59.3959 43.672 49.9989 49.493 41.2539C58.041 28.4199 81.722 22.1949 76.491 1.58691Z" fill="#EA2D2E"/>
<path d="M52.214 126.021C74.69 127.458 109.214 125.221 110.031 114.585C110.031 114.585 108.46 118.617 91.454 121.816C72.268 125.428 48.6 125.007 34.567 122.69C34.567 122.691 37.442 125.071 52.214 126.021Z" fill="#0074BD"/>
</svg>
