<svg width="48" height="48" viewBox="0 0 48 48" fill="none" xmlns="http://www.w3.org/2000/svg">
<g clip-path="url(#clip0_10_111)">
<path d="M24 0C10.7445 0 0 10.7445 0 24C0 37.254 10.7445 48 24 48C37.2555 48 48 37.254 48 24C48 10.7445 37.2555 0 24 0Z" fill="#39849C"/>
<path d="M36.441 34.4132V25.2077C36.441 20.2757 33.8085 17.9807 30.297 17.9807C27.4635 17.9807 26.1945 19.5392 25.488 20.6327V18.3572H20.151C20.2215 19.8647 20.151 34.4132 20.151 34.4132H25.488V25.4462C25.488 24.9677 25.5225 24.4877 25.6635 24.1457C26.049 23.1872 26.9265 22.1942 28.401 22.1942C30.333 22.1942 31.1055 23.6657 31.1055 25.8242V34.4147L36.441 34.4132ZM14.5275 16.1657C16.3875 16.1657 17.547 14.9312 17.547 13.3907C17.5125 11.8157 16.3875 10.6172 14.562 10.6172C12.7365 10.6172 11.544 11.8157 11.544 13.3907C11.544 14.9327 12.702 16.1657 14.4945 16.1657H14.5275ZM17.196 34.4132V18.3572H11.8605V34.4132H17.196Z" fill="#1E1E1E"/>
</g>
<defs>
<clipPath id="clip0_10_111">
<rect width="48" height="48" fill="white"/>
</clipPath>
</defs>
</svg>
