<svg width="112" height="112" viewBox="0 0 112 112" fill="none" xmlns="http://www.w3.org/2000/svg">
<g clip-path="url(#clip0_1_291)">
<rect x="-3" width="115" height="110" rx="16" fill="#1E2235"/>
<path d="M54.5 60.3878C57.6108 60.3878 60.1326 57.9757 60.1326 55.0001C60.1326 52.0246 57.6108 49.6124 54.5 49.6124C51.3892 49.6124 48.8674 52.0246 48.8674 55.0001C48.8674 57.9757 51.3892 60.3878 54.5 60.3878Z" fill="#61DAFB"/>
<path fill-rule="evenodd" clip-rule="evenodd" d="M28.0275 52.1616C26.752 53.2629 26.3299 54.2254 26.3299 55.0001C26.3299 55.7747 26.752 56.7372 28.0275 57.8386C29.3028 58.9397 31.2635 60.0215 33.8612 60.9702C39.0423 62.8624 46.3386 64.074 54.5 64.074C62.6614 64.074 69.9577 62.8624 75.1389 60.9702C77.7365 60.0215 79.6972 58.9397 80.9725 57.8386C82.248 56.7372 82.6701 55.7747 82.6701 55.0001C82.6701 54.2254 82.248 53.2629 80.9725 52.1616C79.6972 51.0604 77.7365 49.9786 75.1389 49.0299C69.9577 47.1377 62.6614 45.9261 54.5 45.9261C46.3386 45.9261 39.0423 47.1377 33.8612 49.0299C31.2635 49.9786 29.3028 51.0604 28.0275 52.1616ZM32.3961 45.3598C38.1538 43.257 45.9693 41.9976 54.5 41.9976C63.0307 41.9976 70.8462 43.257 76.6039 45.3598C79.4757 46.4086 81.9411 47.7054 83.7246 49.2454C85.5079 50.7852 86.7772 52.7265 86.7772 55.0001C86.7772 57.2736 85.5079 59.2149 83.7246 60.7547C81.9411 62.2947 79.4757 63.5915 76.6039 64.6403C70.8462 66.7431 63.0307 68.0026 54.5 68.0026C45.9693 68.0026 38.1538 66.7431 32.3961 64.6403C29.5243 63.5915 27.0589 62.2947 25.2754 60.7547C23.4921 59.2149 22.2228 57.2736 22.2228 55.0001C22.2228 52.7265 23.4921 50.7852 25.2754 49.2454C27.0589 47.7054 29.5243 46.4086 32.3961 45.3598Z" fill="#61DAFB"/>
<path fill-rule="evenodd" clip-rule="evenodd" d="M43.8337 31.6517C42.1987 31.1458 41.1162 31.2774 40.4149 31.6647C39.7136 32.052 39.0532 32.8829 38.6938 34.4902C38.3344 36.0972 38.3354 38.2623 38.7753 40.8885C39.6526 46.1265 42.2038 52.7764 46.2845 59.537C50.3652 66.2977 55.1103 71.736 59.4141 75.0818C61.5719 76.7592 63.5316 77.8425 65.1663 78.3484C66.8012 78.8543 67.8837 78.7227 68.585 78.3354C69.2863 77.9481 69.9468 77.1172 70.3062 75.5099C70.6655 73.9029 70.6646 71.7378 70.2247 69.1116C69.3473 63.8736 66.7961 57.2237 62.7154 50.4631C58.6347 43.7024 53.8896 38.2641 49.5858 34.9183C47.4281 33.2409 45.4683 32.1576 43.8337 31.6517ZM52.1762 31.8697C56.9589 35.5878 62.007 41.4322 66.2723 48.4988C70.5377 55.5654 73.3051 62.6692 74.2801 68.4902C74.7664 71.3935 74.825 74.0842 74.3225 76.3316C73.82 78.5787 72.697 80.6009 70.6386 81.7376C68.5802 82.8744 66.1878 82.7935 63.9021 82.0862C61.616 81.3788 59.2092 79.9849 56.8237 78.1304C52.041 74.4123 46.993 68.5679 42.7276 61.5013C38.4623 54.4347 35.6948 47.3309 34.7198 41.5099C34.2335 38.6066 34.1749 35.9159 34.6775 33.6685C35.18 31.4214 36.3029 29.3992 38.3613 28.2625C40.4198 27.1257 42.8121 27.2066 45.0979 27.9139C47.3839 28.6213 49.7907 30.0152 52.1762 31.8697Z" fill="#61DAFB"/>
<path fill-rule="evenodd" clip-rule="evenodd" d="M70.3062 34.4902C69.9468 32.8829 69.2864 32.052 68.585 31.6647C67.8837 31.2774 66.8012 31.1457 65.1663 31.6517C63.5316 32.1575 61.5719 33.2408 59.4141 34.9183C55.1104 38.2641 50.3652 43.7024 46.2846 50.463C42.2039 57.2237 39.6526 63.8736 38.7753 69.1116C38.3354 71.7377 38.3344 73.9028 38.6938 75.5098C39.0532 77.1171 39.7136 77.948 40.4149 78.3353C41.1163 78.7226 42.1988 78.8542 43.8337 78.3483C45.4684 77.8425 47.4281 76.7592 49.5859 75.0817C53.8896 71.7359 58.6348 66.2976 62.7154 59.537C66.7961 52.7763 69.3474 46.1264 70.2247 40.8884C70.6646 38.2623 70.6655 36.0972 70.3062 34.4902ZM74.2801 41.5099C73.3052 47.3308 70.5377 54.4346 66.2723 61.5012C62.007 68.5678 56.959 74.4123 52.1763 78.1304C49.7908 79.9849 47.3839 81.3788 45.0979 82.0862C42.8121 82.7935 40.4198 82.8743 38.3614 81.7376C36.303 80.6008 35.18 78.5786 34.6775 76.3315C34.175 74.0841 34.2336 71.3934 34.7199 68.4901C35.6948 62.6692 38.4623 55.5653 42.7277 48.4987C46.993 41.4321 52.041 35.5877 56.8237 31.8696C59.2092 30.0151 61.6161 28.6212 63.9021 27.9138C66.1879 27.2065 68.5802 27.1257 70.6386 28.2624C72.697 29.3992 73.82 31.4213 74.3225 33.6685C74.825 35.9159 74.7664 38.6066 74.2801 41.5099Z" fill="#61DAFB"/>
</g>
<defs>
<clipPath id="clip0_1_291">
<rect width="112" height="112" rx="20" fill="white"/>
</clipPath>
</defs>
</svg>
