<svg width="48" height="48" viewBox="0 0 48 48" fill="none" xmlns="http://www.w3.org/2000/svg">
<g clip-path="url(#clip0_10_117)">
<path d="M37.763 0H10.237C4.58326 0 0 4.58326 0 10.237V37.763C0 43.4167 4.58326 48 10.237 48H37.763C43.4167 48 48 43.4167 48 37.763V10.237C48 4.58326 43.4167 0 37.763 0Z" fill="#38849C"/>
<path fill-rule="evenodd" clip-rule="evenodd" d="M40.8807 13.8405C39.6502 14.3838 38.3452 14.7404 37.009 14.8983C38.4064 14.0619 39.475 12.7417 39.9682 11.1755C38.6463 11.9571 37.2009 12.5088 35.6937 12.8073C34.7702 11.8183 33.5693 11.1299 32.2477 10.8319C30.926 10.534 29.5451 10.6402 28.2849 11.1368C27.0247 11.6335 25.9439 12.4974 25.1833 13.616C24.4227 14.7346 24.0177 16.0558 24.0211 17.4074C24.0195 17.9235 24.0774 18.438 24.1937 18.9408C21.5125 18.8067 18.8894 18.1118 16.4947 16.9011C14.1 15.6905 11.9873 13.9912 10.2934 11.9135C9.42696 13.3946 9.16054 15.15 9.54865 16.8206C9.93677 18.4911 10.9501 19.9507 12.3813 20.9006C11.309 20.8671 10.2604 20.5774 9.32345 20.056V20.138C9.32345 23.4016 11.6498 26.1239 14.7323 26.7389C13.7407 27.0089 12.7001 27.0481 11.6909 26.8537C12.1219 28.1898 12.9603 29.3583 14.0891 30.1961C15.2179 31.034 16.5808 31.4995 17.9875 31.5276C16.5884 32.6247 14.986 33.4357 13.2722 33.9141C11.5584 34.3925 9.76676 34.5289 8 34.3156C10.9839 36.2262 14.5268 37.3332 18.341 37.3332C30.7534 37.3332 37.5351 27.0833 37.5351 18.1864C37.5351 17.8994 37.5351 17.6124 37.5186 17.3172C38.8338 16.3742 39.9847 15.1853 40.8889 13.8405H40.8807Z" fill="#1E1E1E"/>
</g>
<defs>
<clipPath id="clip0_10_117">
<rect width="48" height="48" fill="white"/>
</clipPath>
</defs>
</svg>
